<?xml version="1.0" encoding="UTF-8"?>
<svg xmlns="http://www.w3.org/2000/svg" xmlns:xlink="http://www.w3.org/1999/xlink" width="89px" height="100px" viewBox="0 0 89 100" version="1.1">
<defs>
<clipPath id="clip1">
  <path d="M 13.351562 53.675781 L 75.652344 53.675781 L 75.652344 67.601562 L 13.351562 67.601562 Z M 13.351562 53.675781 "/>
</clipPath>
<clipPath id="clip2">
  <path d="M 35.796875 32.398438 L 53.203125 32.398438 L 53.203125 51.644531 L 35.796875 51.644531 Z M 35.796875 32.398438 "/>
</clipPath>
</defs>
<g id="surface1">
<path style=" stroke:none;fill-rule:nonzero;fill:rgb(99.607843%,0%,22.352941%);fill-opacity:1;" d="M 61.070312 11.390625 C 61.265625 11.390625 62.839844 12.175781 63.726562 12.472656 C 63.429688 12.570312 62.742188 12.273438 61.957031 11.980469 C 62.152344 11.980469 62.546875 12.078125 62.9375 12.273438 C 62.742188 12.078125 61.265625 11.585938 61.070312 11.390625 M 46.417969 8.347656 C 46.710938 8.25 50.15625 8.738281 51.726562 8.835938 C 51.828125 8.738281 51.53125 8.738281 51.136719 8.640625 C 51.628906 8.542969 52.613281 8.835938 53.300781 8.9375 C 51.238281 9.035156 48.972656 8.445312 47.007812 8.640625 C 46.320312 8.640625 46.8125 8.445312 46.417969 8.347656 M 43.566406 8.347656 C 45.335938 8.347656 46.710938 8.347656 44.15625 8.542969 C 43.859375 8.445312 43.46875 8.445312 43.566406 8.347656 M 71.398438 16.5 C 71.59375 16.5 72.378906 17.382812 72.773438 17.675781 C 72.675781 17.777344 71.886719 16.988281 71.496094 16.695312 C 71.59375 16.792969 71.496094 16.695312 71.398438 16.5 M 69.429688 15.222656 C 68.644531 14.535156 68.347656 14.535156 68.25 14.140625 C 68.9375 14.535156 69.429688 14.925781 69.429688 15.222656 M 56.742188 9.035156 C 56.84375 8.9375 57.039062 9.132812 57.53125 9.230469 C 56.941406 9.132812 57.039062 9.230469 57.234375 9.425781 C 56.546875 9.328125 56.351562 9.230469 56.546875 9.035156 C 56.941406 9.230469 57.039062 9.132812 56.742188 9.035156 M 28.8125 10.210938 C 28.8125 10.113281 29.207031 9.917969 29.503906 9.820312 C 29.207031 10.015625 29.304688 10.113281 29.796875 9.917969 C 29.796875 10.015625 29.207031 10.210938 28.8125 10.410156 C 29.011719 10.3125 29.207031 10.015625 28.8125 10.210938 M 58.710938 8.050781 C 58.414062 8.148438 57.332031 7.5625 56.25 7.363281 C 55.660156 7.167969 58.613281 7.855469 58.710938 8.050781 M 0.6875 56.570312 C 1.277344 59.027344 0.886719 58.929688 0.6875 56.570312 M 0.785156 41.839844 C 0.886719 41.445312 0.984375 40.367188 1.082031 40.464844 C 0.785156 42.820312 0.296875 43.902344 0.195312 45.667969 C 0.492188 44.097656 0.0976562 46.554688 0 47.144531 C 0.0976562 47.929688 0.0976562 46.652344 0.296875 46.847656 C 0.492188 47.144531 -0.0976562 51.269531 0.0976562 49.007812 C -0.0976562 51.070312 0.0976562 53.332031 0.492188 53.921875 C 0 57.0625 2.457031 64.136719 2.949219 65.609375 C 3.046875 65.707031 2.949219 65.117188 3.148438 65.511719 C 3.34375 66.785156 4.230469 67.671875 4.523438 69.046875 C 4.820312 69.4375 6 71.601562 6.195312 72.089844 C 6.589844 72.875 6.785156 72.777344 7.179688 73.5625 C 8.359375 75.824219 10.226562 77.984375 11.996094 80.046875 C 17.703125 86.726562 26.453125 92.226562 36.191406 94.191406 C 45.925781 96.253906 56.152344 94.78125 64.121094 90.949219 C 64.609375 90.65625 64.511719 90.554688 65.101562 90.359375 C 67.855469 89.476562 71.199219 86.628906 73.070312 85.546875 C 73.953125 84.566406 76.3125 82.894531 76.609375 81.914062 C 78.28125 80.539062 79.953125 78.277344 80.835938 76.804688 C 81.328125 76.019531 81.722656 76.019531 81.917969 75.527344 C 81.820312 75.527344 83.492188 73.464844 83.984375 72.289062 C 83.789062 72.289062 83.492188 72.875 83.492188 72.289062 C 87.03125 65.511719 89 56.375 87.917969 50.089844 C 88.113281 57.847656 86.148438 66.492188 82.410156 71.992188 C 80.738281 75.527344 77.296875 79.359375 74.148438 82.109375 C 73.660156 82.601562 73.167969 83.191406 72.578125 83.582031 C 70.707031 85.152344 68.644531 86.429688 66.480469 87.609375 C 61.367188 90.457031 55.660156 92.914062 48.972656 93.011719 C 60.480469 92.03125 70.804688 86.234375 76.511719 79.164062 C 72.183594 83.386719 70.316406 85.054688 65.496094 87.511719 C 65.101562 88.199219 61.859375 89.574219 59.695312 90.164062 C 60.972656 89.574219 63.628906 88.59375 64.511719 87.804688 C 57.332031 91.242188 49.367188 93.207031 41.894531 92.128906 C 44.746094 92.128906 48.777344 92.226562 52.613281 91.539062 C 53.203125 91.34375 53.5 91.144531 54.1875 91.046875 C 61.660156 89.378906 68.839844 85.742188 73.953125 80.636719 C 71.003906 83.289062 66.578125 86.429688 63.726562 87.414062 C 66.382812 85.941406 71.199219 83.089844 72.773438 80.929688 C 69.625 84.074219 63.726562 87.214844 59.988281 88.59375 C 59.398438 88.691406 60.382812 88.199219 59.398438 88.59375 C 58.21875 88.886719 58.710938 88.886719 58.414062 89.082031 C 53.890625 90.359375 48.679688 91.441406 44.351562 91.046875 C 43.566406 90.949219 43.269531 90.753906 42.582031 90.753906 C 41.796875 90.65625 41.105469 90.65625 40.222656 90.65625 C 36.78125 90.261719 33.042969 88.886719 30.289062 87.707031 C 28.8125 87.019531 27.339844 86.527344 25.863281 85.644531 C 24.683594 84.957031 23.699219 84.171875 22.71875 83.386719 C 18.980469 80.636719 15.832031 77.886719 12.882812 73.957031 C 7.574219 66.589844 4.820312 57.359375 5.210938 48.222656 C 5.605469 39.089844 9.246094 30.152344 15.046875 23.570312 C 14.75 23.863281 15.441406 22.882812 16.03125 22.292969 C 16.03125 22.488281 15.929688 22.785156 16.621094 22.097656 C 17.210938 21.410156 16.421875 21.902344 16.71875 21.507812 C 22.816406 14.828125 33.4375 9.425781 44.351562 9.230469 C 44.746094 8.9375 45.433594 8.542969 46.222656 8.738281 C 46.222656 8.835938 45.730469 8.835938 45.730469 8.835938 C 46.8125 8.738281 47.792969 8.738281 48.285156 8.9375 C 48.382812 8.835938 47.894531 8.738281 48.285156 8.738281 C 48.972656 8.9375 49.171875 8.738281 49.566406 8.9375 C 49.269531 8.9375 48.972656 8.9375 48.777344 9.035156 C 51.238281 9.035156 52.808594 9.625 55.269531 9.820312 C 53.988281 9.523438 53.695312 9.523438 52.710938 9.230469 C 53.792969 9.425781 54.285156 9.625 54.777344 9.523438 C 54.582031 9.523438 54.679688 9.230469 54.875 9.328125 C 56.84375 9.820312 57.039062 10.015625 59.105469 10.703125 C 59.300781 10.507812 58.21875 10.410156 57.921875 10.113281 C 59.890625 10.800781 61.660156 11.292969 62.839844 12.078125 C 62.449219 11.785156 61.265625 11.390625 60.382812 11 C 60.285156 11.097656 60.675781 11.195312 60.777344 11.390625 C 59.792969 10.898438 58.414062 10.410156 57.039062 10.210938 C 58.21875 10.507812 59.003906 10.898438 59.496094 11.097656 C 58.414062 10.898438 57.039062 10.210938 55.464844 9.917969 C 58.023438 10.703125 62.839844 12.472656 65.792969 14.042969 C 64.710938 13.355469 63.429688 12.863281 62.742188 12.472656 C 63.332031 12.570312 64.019531 12.960938 64.019531 12.765625 C 64.710938 13.0625 65.59375 13.75 66.085938 13.847656 C 65.199219 13.257812 63.429688 12.375 62.839844 12.078125 C 70.214844 15.417969 76.804688 21.015625 81.035156 28.1875 C 81.425781 28.875 82.019531 30.445312 82.507812 30.640625 C 82.410156 30.152344 82.019531 29.855469 81.625 29.070312 C 81.820312 29.070312 81.820312 28.777344 81.625 28.480469 C 81.230469 27.992188 81.625 28.875 81.230469 28.382812 C 79.460938 25.140625 77.296875 22.292969 73.953125 19.152344 C 75.820312 20.917969 74.445312 19.640625 74.050781 19.050781 C 76.609375 21.3125 79.558594 25.140625 80.835938 27.105469 C 80.640625 26.8125 80.542969 26.613281 80.640625 26.613281 C 83 30.640625 84.476562 34.277344 85.953125 39.480469 C 86.050781 39.582031 85.953125 39.089844 86.148438 39.382812 C 87.132812 43.507812 87.425781 46.945312 87.328125 50.089844 C 88.113281 44.785156 86.34375 36.535156 83.199219 30.054688 C 82.804688 29.265625 82.804688 29.855469 82.410156 28.972656 C 82.410156 28.679688 82.117188 28.089844 81.917969 27.695312 C 77.984375 21.214844 73.167969 16.597656 67.464844 12.960938 C 67.855469 13.160156 68.644531 13.75 68.644531 13.648438 C 58.023438 6.675781 45.730469 5.695312 35.601562 7.855469 C 34.910156 8.148438 34.617188 8.445312 33.828125 8.835938 C 35.304688 8.347656 36.191406 8.25 37.566406 7.953125 C 37.863281 7.660156 36.289062 8.050781 36.976562 7.757812 C 37.074219 7.855469 38.355469 7.5625 38.648438 7.660156 C 38.648438 7.757812 38.253906 7.855469 38.15625 7.953125 C 41.402344 7.265625 44.746094 7.167969 47.597656 7.363281 C 45.925781 7.460938 42.878906 7.167969 41.894531 7.660156 C 42.878906 7.5625 44.253906 7.460938 45.140625 7.5625 C 43.960938 7.5625 41.796875 7.660156 40.8125 7.757812 C 40.714844 7.660156 42.386719 7.460938 41.304688 7.460938 C 40.8125 7.5625 40.027344 7.5625 39.730469 7.855469 C 31.273438 8.640625 23.011719 13.0625 17.210938 18.265625 C 16.03125 19.25 14.652344 20.328125 13.769531 21.410156 C 11.605469 23.863281 10.226562 26.320312 8.652344 28.480469 C 9.636719 26.417969 11.800781 23.277344 14.359375 20.625 C 16.914062 17.972656 19.667969 15.710938 21.144531 14.535156 C 21.144531 14.925781 23.503906 13.0625 24.390625 12.472656 C 23.800781 12.960938 24.78125 12.273438 24.980469 12.375 C 28.125 10.507812 30.683594 9.820312 33.535156 8.738281 C 32.847656 8.9375 32.257812 9.132812 32.15625 9.035156 C 32.847656 8.835938 33.238281 8.640625 33.140625 8.542969 C 30.386719 9.328125 26.0625 11.195312 22.617188 13.257812 C 28.8125 9.035156 36.683594 6.480469 44.449219 6.382812 C 52.21875 6.183594 59.792969 8.148438 65.792969 11.292969 C 69.824219 13.0625 73.660156 16.300781 76.707031 19.445312 C 77.59375 20.230469 76.902344 19.25 78.183594 20.625 C 77.789062 20.425781 77.492188 20.230469 77.984375 20.820312 C 78.773438 21.703125 77.789062 20.132812 79.066406 21.703125 C 78.96875 21.703125 78.574219 21.214844 78.574219 21.410156 C 82.019531 24.453125 84.671875 29.953125 86.246094 33.589844 C 85.851562 32.117188 84.871094 30.054688 84.082031 28.578125 C 86.441406 32.902344 87.230469 35.453125 88.214844 39.285156 C 88.605469 39.582031 88.015625 37.910156 88.410156 38.695312 C 88.507812 39.285156 88.605469 41.152344 89 41.445312 C 88.703125 39.582031 88.214844 37.320312 87.820312 36.929688 C 88.113281 37.125 87.328125 34.667969 86.835938 34.078125 C 86.640625 32.507812 85.261719 29.757812 84.082031 27.695312 C 79.855469 19.445312 72.28125 12.667969 63.824219 8.9375 C 63.824219 8.738281 63.332031 8.542969 63.136719 8.347656 C 54.777344 4.808594 44.746094 3.828125 35.109375 6.085938 C 25.371094 8.445312 16.226562 14.042969 9.734375 22.097656 C 10.03125 21.113281 12.488281 19.25 12.585938 18.464844 C 9.734375 21.507812 6.6875 25.535156 4.621094 29.855469 C 2.457031 34.179688 1.277344 38.597656 0.785156 41.839844 "/>
<g clip-path="url(#clip1)" clip-rule="nonzero">
<path style=" stroke:none;fill-rule:nonzero;fill:rgb(99.607843%,0%,22.352941%);fill-opacity:1;" d="M 13.996094 54.261719 C 14.125 54.261719 14.523438 54.28125 15.195312 54.320312 C 15.867188 54.359375 17.1875 54.378906 19.15625 54.378906 C 21.125 54.378906 22.3125 54.351562 22.726562 54.292969 C 22.832031 54.292969 22.90625 54.320312 22.945312 54.378906 C 22.984375 54.4375 23.003906 54.492188 23.003906 54.542969 L 23.09375 55.730469 C 23.09375 55.976562 23.078125 56.128906 23.050781 56.191406 C 23.019531 56.257812 22.957031 56.289062 22.859375 56.289062 C 22.78125 56.289062 22.714844 56.1875 22.660156 55.984375 C 22.605469 55.785156 22.550781 55.632812 22.492188 55.523438 C 22.34375 55.269531 21.917969 55.144531 21.210938 55.144531 L 19.300781 55.144531 C 19.066406 55.144531 18.921875 55.191406 18.871094 55.28125 C 18.816406 55.375 18.789062 55.640625 18.789062 56.082031 L 18.789062 56.800781 L 18.742188 62.171875 L 18.730469 63.125 C 18.730469 63.546875 18.796875 63.820312 18.929688 63.949219 C 19.058594 64.074219 19.203125 64.171875 19.359375 64.234375 C 19.519531 64.296875 19.648438 64.335938 19.757812 64.34375 C 20.03125 64.363281 20.167969 64.453125 20.167969 64.609375 C 20.167969 64.714844 20.144531 64.785156 20.097656 64.816406 C 20.046875 64.84375 19.953125 64.859375 19.816406 64.859375 L 18.1875 64.742188 L 16.6875 64.84375 C 16.324219 64.84375 16.144531 64.765625 16.144531 64.609375 C 16.144531 64.511719 16.171875 64.445312 16.230469 64.410156 C 16.289062 64.375 16.40625 64.347656 16.578125 64.320312 C 16.75 64.296875 16.859375 64.28125 16.90625 64.273438 C 17.242188 64.191406 17.425781 63.996094 17.464844 63.683594 C 17.5625 62.824219 17.613281 60.972656 17.613281 58.136719 L 17.597656 55.511719 C 17.597656 55.324219 17.542969 55.210938 17.4375 55.164062 C 17.328125 55.121094 16.972656 55.097656 16.363281 55.097656 C 15.757812 55.097656 15.277344 55.121094 14.933594 55.160156 C 14.582031 55.199219 14.378906 55.234375 14.320312 55.265625 C 14.261719 55.300781 14.191406 55.375 14.109375 55.480469 C 14.027344 55.589844 13.957031 55.714844 13.902344 55.855469 C 13.847656 55.996094 13.8125 56.113281 13.792969 56.199219 C 13.761719 56.425781 13.667969 56.539062 13.511719 56.539062 C 13.40625 56.539062 13.351562 56.453125 13.351562 56.289062 C 13.351562 55.898438 13.375 55.542969 13.425781 55.222656 C 13.472656 54.90625 13.5 54.722656 13.507812 54.675781 C 13.511719 54.625 13.515625 54.59375 13.523438 54.578125 C 13.527344 54.5625 13.53125 54.539062 13.535156 54.503906 C 13.539062 54.46875 13.546875 54.445312 13.558594 54.429688 C 13.566406 54.417969 13.578125 54.398438 13.59375 54.375 C 13.609375 54.347656 13.625 54.332031 13.644531 54.320312 C 13.664062 54.3125 13.6875 54.300781 13.71875 54.292969 C 13.777344 54.273438 13.871094 54.261719 13.996094 54.261719 Z M 25.328125 64.726562 L 24.285156 64.800781 C 24.039062 64.800781 23.910156 64.785156 23.902344 64.753906 C 23.890625 64.726562 23.886719 64.691406 23.886719 64.652344 C 23.886719 64.554688 23.945312 64.492188 24.0625 64.460938 C 24.347656 64.382812 24.53125 64.257812 24.613281 64.085938 C 24.695312 63.917969 24.738281 63.664062 24.738281 63.332031 L 24.796875 58.328125 L 24.796875 57.609375 C 24.796875 56.277344 24.769531 55.464844 24.710938 55.171875 C 24.652344 54.878906 24.472656 54.734375 24.179688 54.734375 L 23.988281 54.734375 L 23.929688 54.71875 C 23.765625 54.71875 23.679688 54.675781 23.679688 54.585938 C 23.679688 54.496094 23.730469 54.425781 23.832031 54.375 C 23.9375 54.320312 24.085938 54.269531 24.273438 54.21875 C 24.464844 54.171875 24.738281 54.066406 25.089844 53.910156 C 25.445312 53.753906 25.664062 53.675781 25.753906 53.675781 C 25.878906 53.675781 25.945312 53.789062 25.945312 54.011719 C 25.945312 54.0625 25.925781 54.179688 25.890625 54.367188 C 25.859375 54.550781 25.839844 54.910156 25.832031 55.441406 C 25.828125 55.976562 25.816406 56.550781 25.800781 57.160156 C 25.789062 57.773438 25.777344 58.1875 25.765625 58.402344 C 25.746094 58.8125 25.738281 59.101562 25.738281 59.265625 C 25.738281 59.433594 25.777344 59.515625 25.855469 59.515625 C 25.875 59.515625 25.976562 59.425781 26.15625 59.242188 C 26.335938 59.0625 26.585938 58.882812 26.90625 58.699219 C 27.222656 58.519531 27.566406 58.429688 27.925781 58.429688 C 28.722656 58.429688 29.335938 58.664062 29.777344 59.136719 C 30.21875 59.605469 30.441406 60.332031 30.441406 61.320312 L 30.441406 63.449219 C 30.441406 63.714844 30.488281 63.917969 30.585938 64.066406 C 30.683594 64.210938 30.796875 64.292969 30.925781 64.300781 C 31.453125 64.351562 31.71875 64.453125 31.71875 64.609375 C 31.71875 64.765625 31.566406 64.84375 31.261719 64.84375 L 30.027344 64.769531 L 28.898438 64.816406 C 28.671875 64.816406 28.558594 64.765625 28.558594 64.667969 C 28.558594 64.492188 28.691406 64.402344 28.957031 64.402344 C 29.054688 64.402344 29.144531 64.351562 29.226562 64.242188 C 29.308594 64.132812 29.351562 63.96875 29.351562 63.742188 L 29.367188 63.363281 L 29.382812 61.308594 C 29.382812 60.710938 29.199219 60.195312 28.839844 59.757812 C 28.476562 59.324219 28.054688 59.105469 27.582031 59.105469 C 27.105469 59.105469 26.625 59.296875 26.132812 59.679688 C 25.957031 59.816406 25.847656 60.039062 25.796875 60.34375 C 25.746094 60.652344 25.722656 61.335938 25.722656 62.394531 L 25.722656 62.730469 C 25.722656 63.171875 25.757812 63.527344 25.824219 63.800781 C 25.933594 64.183594 26.203125 64.390625 26.632812 64.417969 C 26.769531 64.429688 26.875 64.445312 26.949219 64.46875 C 27.023438 64.492188 27.058594 64.546875 27.058594 64.625 C 27.058594 64.742188 27.007812 64.800781 26.898438 64.800781 L 26.515625 64.785156 C 26.261719 64.773438 26.003906 64.761719 25.742188 64.746094 C 25.484375 64.734375 25.347656 64.726562 25.328125 64.726562 Z M 34.453125 65.019531 C 33.296875 65.019531 32.71875 64.53125 32.71875 63.550781 C 32.71875 62.847656 33.011719 62.363281 33.597656 62.097656 C 34.089844 61.894531 34.839844 61.707031 35.847656 61.542969 C 35.875 61.53125 35.914062 61.523438 35.964844 61.519531 C 36.011719 61.515625 36.066406 61.507812 36.117188 61.496094 C 36.171875 61.488281 36.214844 61.476562 36.242188 61.46875 C 36.3125 61.4375 36.347656 61.371094 36.347656 61.261719 L 36.375 60.5 C 36.375 59.941406 36.210938 59.539062 35.890625 59.289062 C 35.566406 59.039062 35.253906 58.914062 34.949219 58.914062 C 34.246094 58.914062 33.894531 59.207031 33.894531 59.796875 L 33.949219 60.324219 C 33.949219 60.519531 33.863281 60.617188 33.6875 60.617188 C 33.550781 60.617188 33.398438 60.59375 33.230469 60.542969 C 32.925781 60.445312 32.773438 60.28125 32.773438 60.046875 C 32.773438 59.664062 33.03125 59.296875 33.546875 58.949219 C 34.058594 58.605469 34.578125 58.429688 35.097656 58.429688 C 35.617188 58.429688 36.023438 58.480469 36.316406 58.578125 C 36.609375 58.675781 36.828125 58.785156 36.96875 58.90625 C 37.109375 59.03125 37.222656 59.195312 37.300781 59.398438 C 37.398438 59.644531 37.449219 60.027344 37.449219 60.550781 C 37.449219 61.074219 37.4375 61.539062 37.410156 61.945312 C 37.386719 62.351562 37.375 62.722656 37.375 63.054688 C 37.375 63.386719 37.414062 63.65625 37.492188 63.867188 C 37.570312 64.078125 37.664062 64.210938 37.769531 64.273438 C 37.878906 64.332031 37.988281 64.363281 38.09375 64.375 C 38.359375 64.394531 38.492188 64.472656 38.492188 64.609375 C 38.492188 64.816406 38.183594 64.917969 37.566406 64.917969 C 37.308594 64.917969 37.089844 64.847656 36.910156 64.710938 C 36.730469 64.574219 36.601562 64.441406 36.519531 64.308594 C 36.445312 64.175781 36.402344 64.109375 36.390625 64.109375 C 36.378906 64.109375 36.339844 64.140625 36.273438 64.207031 C 36.203125 64.269531 36.109375 64.34375 35.984375 64.433594 C 35.863281 64.519531 35.722656 64.609375 35.566406 64.695312 C 35.203125 64.914062 34.832031 65.019531 34.453125 65.019531 Z M 36.242188 61.746094 L 36.097656 61.777344 C 35.871094 61.816406 35.730469 61.839844 35.671875 61.851562 C 35.613281 61.859375 35.476562 61.890625 35.257812 61.9375 C 35.042969 61.988281 34.894531 62.03125 34.808594 62.070312 C 34.726562 62.109375 34.609375 62.171875 34.457031 62.253906 C 34.304688 62.335938 34.195312 62.421875 34.128906 62.511719 C 33.953125 62.785156 33.863281 63.074219 33.863281 63.375 C 33.863281 63.679688 33.960938 63.933594 34.15625 64.132812 C 34.351562 64.332031 34.605469 64.433594 34.914062 64.433594 C 35.222656 64.433594 35.46875 64.394531 35.648438 64.316406 C 35.828125 64.238281 35.964844 64.148438 36.054688 64.050781 C 36.140625 63.953125 36.210938 63.820312 36.257812 63.65625 C 36.316406 63.46875 36.347656 63.230469 36.347656 62.9375 L 36.347656 61.878906 C 36.347656 61.792969 36.3125 61.746094 36.242188 61.746094 Z M 41.617188 67.589844 L 41.574219 67.589844 L 40.941406 67.601562 C 40.757812 67.601562 40.664062 67.539062 40.664062 67.410156 C 40.664062 67.382812 40.773438 67.230469 40.996094 66.957031 C 41.214844 66.683594 41.4375 66.34375 41.664062 65.945312 C 41.886719 65.542969 42 65.1875 42 64.882812 C 42 64.574219 41.722656 63.8125 41.164062 62.597656 C 40.605469 61.386719 40.121094 60.390625 39.707031 59.621094 C 39.601562 59.425781 39.492188 59.273438 39.378906 59.164062 C 39.265625 59.058594 39.175781 59 39.105469 58.988281 C 38.949219 58.96875 38.871094 58.894531 38.871094 58.769531 C 38.871094 58.640625 38.96875 58.578125 39.164062 58.578125 L 40.738281 58.605469 L 41.574219 58.578125 C 41.644531 58.578125 41.703125 58.59375 41.757812 58.628906 C 41.8125 58.664062 41.839844 58.699219 41.839844 58.738281 C 41.839844 58.914062 41.722656 59.003906 41.488281 59.003906 L 41.265625 59.003906 C 41.109375 59.003906 41.03125 59.125 41.03125 59.371094 C 41.03125 59.664062 41.289062 60.367188 41.808594 61.484375 C 41.886719 61.648438 42.003906 61.914062 42.164062 62.277344 C 42.457031 62.941406 42.632812 63.273438 42.691406 63.273438 C 42.75 63.273438 42.976562 62.710938 43.375 61.585938 C 43.773438 60.460938 43.96875 59.789062 43.96875 59.574219 C 43.96875 59.359375 43.921875 59.207031 43.832031 59.121094 C 43.738281 59.03125 43.632812 58.988281 43.515625 58.988281 C 43.210938 59.007812 43.058594 58.925781 43.058594 58.738281 C 43.058594 58.621094 43.152344 58.5625 43.335938 58.5625 L 44.394531 58.578125 L 45.308594 58.5625 C 45.511719 58.5625 45.613281 58.625 45.613281 58.753906 C 45.613281 58.851562 45.53125 58.921875 45.359375 58.964844 C 45.1875 59.011719 45.070312 59.070312 45.011719 59.148438 C 44.855469 59.375 44.589844 59.992188 44.21875 61 L 42.910156 64.476562 C 42.804688 64.761719 42.695312 65.050781 42.589844 65.351562 C 42.480469 65.648438 42.390625 65.890625 42.324219 66.078125 C 42.253906 66.261719 42.1875 66.449219 42.117188 66.632812 C 42.050781 66.820312 41.996094 66.964844 41.957031 67.070312 C 41.917969 67.171875 41.878906 67.265625 41.839844 67.351562 C 41.761719 67.511719 41.6875 67.589844 41.617188 67.589844 Z M 50.714844 58.914062 L 50.773438 59.796875 C 50.773438 59.960938 50.753906 60.074219 50.714844 60.132812 C 50.675781 60.191406 50.617188 60.222656 50.546875 60.222656 C 50.472656 60.222656 50.394531 60.152344 50.3125 60.011719 C 50.226562 59.867188 50.132812 59.710938 50.03125 59.546875 C 49.929688 59.378906 49.761719 59.226562 49.53125 59.082031 C 49.300781 58.941406 49.039062 58.871094 48.746094 58.871094 C 48.449219 58.871094 48.210938 58.941406 48.023438 59.082031 C 47.839844 59.226562 47.746094 59.378906 47.746094 59.546875 C 47.746094 59.710938 47.761719 59.847656 47.789062 59.949219 C 47.820312 60.050781 47.871094 60.144531 47.945312 60.222656 C 48.019531 60.300781 48.082031 60.363281 48.136719 60.417969 C 48.191406 60.472656 48.28125 60.53125 48.40625 60.589844 C 48.535156 60.648438 48.628906 60.6875 48.695312 60.710938 C 48.757812 60.738281 48.863281 60.777344 49.007812 60.835938 C 49.902344 61.152344 50.472656 61.457031 50.730469 61.753906 C 50.984375 62.050781 51.109375 62.480469 51.109375 63.039062 C 51.109375 63.597656 50.851562 64.109375 50.332031 64.578125 C 49.980469 64.882812 49.496094 65.035156 48.878906 65.035156 C 48.457031 65.035156 47.984375 64.933594 47.464844 64.726562 C 47.320312 64.667969 47.234375 64.636719 47.210938 64.628906 C 47.183594 64.625 47.144531 64.613281 47.09375 64.59375 C 47.039062 64.574219 47 64.5625 46.976562 64.554688 C 46.949219 64.550781 46.917969 64.539062 46.878906 64.519531 C 46.839844 64.5 46.8125 64.484375 46.800781 64.46875 C 46.785156 64.453125 46.765625 64.433594 46.746094 64.402344 C 46.71875 64.355469 46.703125 64.277344 46.703125 64.167969 L 46.703125 62.890625 C 46.703125 62.785156 46.726562 62.695312 46.769531 62.617188 C 46.8125 62.546875 46.875 62.511719 46.953125 62.511719 C 47.03125 62.511719 47.085938 62.53125 47.121094 62.574219 C 47.15625 62.621094 47.1875 62.710938 47.21875 62.847656 C 47.246094 62.984375 47.277344 63.082031 47.304688 63.140625 C 47.667969 64.042969 48.175781 64.492188 48.832031 64.492188 C 49.136719 64.492188 49.425781 64.410156 49.699219 64.246094 C 49.972656 64.085938 50.113281 63.832031 50.113281 63.484375 C 50.113281 63.136719 50 62.859375 49.773438 62.640625 C 49.546875 62.425781 49.273438 62.257812 48.949219 62.136719 C 48.628906 62.011719 48.304688 61.886719 47.980469 61.753906 C 47.65625 61.621094 47.382812 61.425781 47.15625 61.167969 C 46.933594 60.90625 46.820312 60.582031 46.820312 60.191406 C 46.820312 59.644531 47.039062 59.203125 47.480469 58.871094 C 47.921875 58.539062 48.40625 58.371094 48.9375 58.371094 C 49.464844 58.371094 49.867188 58.414062 50.140625 58.496094 C 50.414062 58.578125 50.578125 58.65625 50.632812 58.722656 C 50.6875 58.792969 50.714844 58.855469 50.714844 58.914062 Z M 53.800781 64.785156 L 52.59375 64.828125 C 52.390625 64.828125 52.285156 64.75 52.285156 64.59375 C 52.285156 64.46875 52.433594 64.398438 52.726562 64.390625 C 52.835938 64.378906 52.957031 64.296875 53.09375 64.144531 C 53.230469 63.996094 53.328125 63.792969 53.386719 63.539062 C 53.445312 63.285156 53.511719 62.414062 53.578125 60.925781 C 53.648438 59.4375 53.683594 58.269531 53.683594 57.425781 C 53.683594 56.578125 53.585938 55.96875 53.394531 55.597656 C 53.203125 55.226562 52.789062 54.96875 52.152344 54.820312 C 52.027344 54.792969 51.960938 54.71875 51.960938 54.601562 C 51.960938 54.453125 52.050781 54.378906 52.226562 54.378906 L 53.007812 54.4375 L 54.109375 54.410156 C 54.292969 54.410156 54.410156 54.476562 54.460938 54.617188 C 54.578125 54.871094 54.789062 55.328125 55.09375 55.984375 C 55.394531 56.648438 55.636719 57.171875 55.816406 57.566406 C 56 57.957031 56.234375 58.457031 56.519531 59.0625 C 56.800781 59.667969 57.03125 60.160156 57.207031 60.535156 C 57.382812 60.914062 57.566406 61.292969 57.757812 61.675781 C 57.949219 62.054688 58.097656 62.335938 58.199219 62.515625 C 58.300781 62.699219 58.367188 62.789062 58.398438 62.789062 C 58.429688 62.789062 58.460938 62.773438 58.492188 62.738281 C 58.527344 62.703125 58.5625 62.65625 58.59375 62.597656 C 58.628906 62.539062 58.660156 62.480469 58.683594 62.421875 C 58.710938 62.363281 58.742188 62.289062 58.785156 62.195312 C 58.832031 62.101562 58.863281 62.03125 58.882812 61.980469 L 60.777344 58.078125 C 61.296875 57.023438 61.644531 56.285156 61.820312 55.863281 L 62.160156 55.128906 C 62.1875 55.050781 62.210938 54.988281 62.226562 54.945312 C 62.242188 54.902344 62.253906 54.867188 62.261719 54.839844 C 62.273438 54.816406 62.28125 54.796875 62.292969 54.777344 C 62.300781 54.757812 62.320312 54.714844 62.34375 54.644531 C 62.367188 54.574219 62.394531 54.527344 62.425781 54.496094 C 62.503906 54.417969 62.644531 54.378906 62.851562 54.378906 L 64.113281 54.410156 C 64.28125 54.410156 64.363281 54.472656 64.363281 54.601562 C 64.363281 54.699219 64.332031 54.769531 64.265625 54.816406 C 64.203125 54.859375 64.0625 54.894531 63.839844 54.921875 C 63.621094 54.953125 63.460938 55.074219 63.363281 55.289062 C 63.265625 55.503906 63.21875 56.09375 63.21875 57.058594 C 63.21875 58.023438 63.246094 59.039062 63.304688 60.109375 C 63.363281 61.183594 63.394531 61.855469 63.394531 62.128906 C 63.394531 63.105469 63.472656 63.730469 63.628906 64 C 63.785156 64.269531 64.113281 64.402344 64.613281 64.402344 C 64.683594 64.402344 64.742188 64.429688 64.796875 64.476562 C 64.851562 64.527344 64.878906 64.570312 64.878906 64.609375 C 64.878906 64.765625 64.824219 64.84375 64.714844 64.84375 L 64.554688 64.84375 L 63.054688 64.785156 C 63.054688 64.785156 62.546875 64.808594 61.527344 64.859375 C 61.351562 64.859375 61.265625 64.789062 61.265625 64.652344 C 61.265625 64.507812 61.394531 64.417969 61.660156 64.390625 C 61.757812 64.378906 61.863281 64.320312 61.976562 64.207031 C 62.089844 64.09375 62.167969 63.929688 62.210938 63.71875 C 62.253906 63.511719 62.277344 63.21875 62.277344 62.847656 C 62.277344 62.476562 62.269531 62.070312 62.253906 61.628906 C 62.242188 61.191406 62.222656 60.761719 62.203125 60.34375 C 62.183594 59.929688 62.164062 59.539062 62.144531 59.171875 C 62.125 58.804688 62.109375 58.503906 62.101562 58.269531 L 62.070312 57.917969 C 62.070312 57.496094 62.027344 57.285156 61.941406 57.285156 C 61.910156 57.285156 61.882812 57.300781 61.855469 57.332031 C 61.832031 57.359375 61.8125 57.382812 61.792969 57.402344 C 61.773438 57.421875 61.753906 57.453125 61.734375 57.496094 C 61.714844 57.542969 61.695312 57.578125 61.675781 57.609375 C 61.65625 57.636719 61.632812 57.679688 61.601562 57.730469 C 61.570312 57.785156 61.546875 57.835938 61.527344 57.875 L 61.453125 58.035156 C 61.414062 58.101562 61.386719 58.160156 61.367188 58.210938 L 59.324219 62.335938 C 59.089844 62.8125 58.859375 63.285156 58.640625 63.742188 C 58.421875 64.203125 58.289062 64.464844 58.25 64.527344 C 58.210938 64.589844 58.15625 64.625 58.082031 64.625 C 58.007812 64.625 57.941406 64.582031 57.882812 64.496094 C 57.824219 64.414062 57.738281 64.230469 57.621094 63.949219 C 57.503906 63.664062 57.398438 63.429688 57.3125 63.246094 C 55.519531 59.605469 54.601562 57.757812 54.5625 57.703125 C 54.523438 57.648438 54.488281 57.625 54.460938 57.625 C 54.382812 57.625 54.34375 57.820312 54.34375 58.210938 L 54.210938 62.085938 L 54.210938 62.746094 C 54.210938 63.546875 54.371094 64.042969 54.695312 64.226562 C 54.863281 64.324219 55.023438 64.378906 55.179688 64.390625 C 55.425781 64.417969 55.546875 64.484375 55.546875 64.585938 C 55.546875 64.6875 55.535156 64.757812 55.503906 64.789062 C 55.472656 64.828125 55.414062 64.84375 55.328125 64.84375 Z M 66.890625 63.140625 L 66.90625 58.519531 L 66.890625 56.039062 C 66.890625 55.675781 66.816406 55.398438 66.671875 55.207031 C 66.523438 55.019531 66.359375 54.910156 66.175781 54.886719 C 65.996094 54.863281 65.832031 54.832031 65.6875 54.792969 C 65.539062 54.753906 65.464844 54.683594 65.464844 54.585938 C 65.464844 54.429688 65.609375 54.351562 65.890625 54.351562 L 68.332031 54.351562 L 69.800781 54.308594 C 70.683594 54.308594 71.4375 54.527344 72.0625 54.972656 C 72.691406 55.417969 73.003906 56.019531 73.003906 56.773438 C 73.003906 57.273438 72.90625 57.707031 72.714844 58.085938 C 72.527344 58.460938 72.316406 58.734375 72.082031 58.902344 C 71.855469 59.066406 71.644531 59.210938 71.453125 59.332031 C 71.261719 59.457031 71.167969 59.535156 71.167969 59.574219 C 71.167969 59.691406 71.578125 60.324219 72.402344 61.472656 C 73.222656 62.625 73.789062 63.363281 74.089844 63.683594 C 74.464844 64.144531 74.914062 64.375 75.441406 64.375 C 75.578125 64.375 75.648438 64.433594 75.648438 64.550781 C 75.648438 64.695312 75.589844 64.792969 75.472656 64.84375 C 75.355469 64.894531 75.058594 64.917969 74.582031 64.917969 C 74.109375 64.917969 73.679688 64.804688 73.296875 64.578125 C 72.769531 64.277344 71.890625 63.101562 70.667969 61.058594 C 70.199219 60.292969 69.835938 59.914062 69.582031 59.914062 L 68.375 59.914062 C 68.257812 59.914062 68.1875 59.960938 68.160156 60.058594 C 68.136719 60.15625 68.125 60.445312 68.125 60.925781 C 68.125 60.925781 68.125 61.320312 68.125 62.113281 L 68.140625 62.890625 C 68.140625 62.890625 68.140625 62.9375 68.140625 63.023438 C 68.140625 63.425781 68.234375 63.734375 68.417969 63.953125 C 68.605469 64.175781 68.8125 64.304688 69.042969 64.335938 C 69.273438 64.371094 69.480469 64.410156 69.667969 64.453125 C 69.855469 64.5 69.949219 64.570312 69.949219 64.667969 C 69.949219 64.824219 69.859375 64.902344 69.683594 64.902344 C 69.683594 64.902344 68.984375 64.867188 67.582031 64.800781 L 65.964844 64.859375 C 65.761719 64.859375 65.65625 64.78125 65.65625 64.625 C 65.65625 64.457031 65.863281 64.351562 66.273438 64.300781 C 66.429688 64.28125 66.574219 64.171875 66.699219 63.976562 C 66.828125 63.78125 66.890625 63.503906 66.890625 63.140625 Z M 68.125 56.523438 L 68.125 56.933594 C 68.125 57.941406 68.128906 58.566406 68.140625 58.804688 C 68.148438 59.042969 68.183594 59.183594 68.242188 59.222656 C 68.390625 59.3125 68.601562 59.355469 68.875 59.355469 L 69.449219 59.355469 C 70.28125 59.355469 70.875 59.164062 71.230469 58.78125 C 71.589844 58.402344 71.769531 57.910156 71.769531 57.308594 C 71.769531 56.707031 71.53125 56.15625 71.054688 55.65625 C 70.582031 55.160156 69.863281 54.910156 68.902344 54.910156 C 68.542969 54.910156 68.320312 55.003906 68.242188 55.195312 C 68.164062 55.386719 68.125 55.828125 68.125 56.523438 Z M 68.125 56.523438 "/>
</g>
<g clip-path="url(#clip2)" clip-rule="nonzero">
<path style=" stroke:none;fill-rule:evenodd;fill:rgb(75.686275%,75.686275%,75.686275%);fill-opacity:1;" d="M 50.75 48.457031 L 50.75 47.15625 L 47.871094 47.15625 L 47.871094 46.414062 L 52.761719 46.414062 C 52.9375 46.414062 53.078125 46.269531 53.078125 46.09375 L 53.078125 32.71875 C 53.078125 32.542969 52.9375 32.398438 52.761719 32.398438 L 36.175781 32.398438 C 36 32.398438 35.859375 32.542969 35.859375 32.71875 L 35.859375 46.09375 C 35.859375 46.269531 36 46.414062 36.175781 46.414062 L 41.128906 46.414062 L 41.128906 47.15625 L 38.25 47.15625 L 38.25 48.457031 L 35.796875 50.21875 L 35.796875 51.644531 L 53.203125 51.644531 L 53.203125 50.21875 Z M 37.023438 45.148438 L 37.023438 33.558594 C 37.023438 33.40625 37.144531 33.28125 37.296875 33.28125 L 51.582031 33.28125 C 51.730469 33.28125 51.855469 33.40625 51.855469 33.558594 L 51.855469 45.148438 C 51.855469 45.300781 51.730469 45.425781 51.582031 45.425781 L 37.296875 45.425781 C 37.144531 45.425781 37.023438 45.300781 37.023438 45.148438 Z M 36.652344 50.15625 L 38.863281 48.578125 L 50.136719 48.578125 L 52.34375 50.15625 Z M 36.652344 50.15625 "/>
</g>
</g>
</svg>
